<svg width="211" height="105" viewBox="0 0 211 105" fill="none" xmlns="http://www.w3.org/2000/svg">
<g filter="url(#filter0_d_1168_88)">
<rect x="6" y="15" width="119" height="82" rx="11" fill="#383C43"/>
<rect x="6.5" y="15.5" width="118" height="81" rx="10.5" stroke="white" stroke-opacity="0.2"/>
</g>
<circle cx="17.5" cy="26.5" r="4.5" fill="#FF5F57"/>
<circle cx="28.5" cy="26.5" r="4.5" fill="#FFBC2E"/>
<circle cx="38.5" cy="26.5" r="4.5" fill="#29C741"/>
<g filter="url(#filter1_dd_1168_88)">
<rect x="18" y="1" width="189" height="35" rx="6" fill="#404040"/>
<rect x="18.5" y="1.5" width="188" height="34" rx="5.5" stroke="white" stroke-opacity="0.2"/>
</g>
<rect x="170" y="5" width="33" height="27" rx="4" fill="#D9D9D9" fill-opacity="0.07"/>
<rect x="133" y="5" width="33" height="27" rx="4" fill="#D9D9D9" fill-opacity="0.07"/>
<rect x="96" y="5" width="33" height="27" rx="4" fill="#D9D9D9" fill-opacity="0.07"/>
<rect x="59" y="5" width="33" height="27" rx="4" fill="#D9D9D9" fill-opacity="0.07"/>
<rect x="22" y="5" width="33" height="27" rx="4" fill="#D9D9D9" fill-opacity="0.07"/>
<rect x="23" y="6" width="31" height="25" rx="3" fill="white" fill-opacity="0.07"/>
<rect x="60" y="6" width="15" height="25" rx="3" fill="white" fill-opacity="0.45"/>
<rect x="97" y="6" width="5" height="25" rx="2.5" fill="white" fill-opacity="0.07"/>
<rect x="123" y="6" width="5" height="25" rx="2.5" fill="white" fill-opacity="0.07"/>
<rect x="134" y="6" width="22" height="25" rx="3" fill="white" fill-opacity="0.07"/>
<rect x="76" y="6" width="15" height="25" rx="3" fill="white" fill-opacity="0.07"/>
<rect x="103" y="6" width="19" height="25" rx="3" fill="white" fill-opacity="0.07"/>
<rect x="157" y="6" width="8" height="25" rx="3" fill="white" fill-opacity="0.07"/>
<rect x="187" y="6" width="15" height="12" rx="3" fill="white" fill-opacity="0.07"/>
<rect x="171" y="6" width="15" height="12" rx="3" fill="white" fill-opacity="0.07"/>
<rect x="187" y="19" width="15" height="12" rx="3" fill="white" fill-opacity="0.07"/>
<rect x="171" y="19" width="15" height="12" rx="3" fill="white" fill-opacity="0.07"/>
<path d="M69.1419 33.034L66.7782 24.3035L75.2307 27.5058L72.6042 28.791L72.3816 28.9L72.5481 29.0836L76.1985 33.1095L74.7176 34.4523L71.0671 30.4265L70.9024 30.2448L70.7715 30.4522L69.1419 33.034Z" fill="#050505" stroke="white" stroke-width="0.372696"/>
<defs>
<filter id="filter0_d_1168_88" x="0.4" y="11.4" width="130.2" height="93.2" filterUnits="userSpaceOnUse" color-interpolation-filters="sRGB">
<feFlood flood-opacity="0" result="BackgroundImageFix"/>
<feColorMatrix in="SourceAlpha" type="matrix" values="0 0 0 0 0 0 0 0 0 0 0 0 0 0 0 0 0 0 127 0" result="hardAlpha"/>
<feOffset dy="2"/>
<feGaussianBlur stdDeviation="2.8"/>
<feComposite in2="hardAlpha" operator="out"/>
<feColorMatrix type="matrix" values="0 0 0 0 0 0 0 0 0 0 0 0 0 0 0 0 0 0 0.25 0"/>
<feBlend mode="normal" in2="BackgroundImageFix" result="effect1_dropShadow_1168_88"/>
<feBlend mode="normal" in="SourceGraphic" in2="effect1_dropShadow_1168_88" result="shape"/>
</filter>
<filter id="filter1_dd_1168_88" x="14" y="0" width="197" height="44" filterUnits="userSpaceOnUse" color-interpolation-filters="sRGB">
<feFlood flood-opacity="0" result="BackgroundImageFix"/>
<feColorMatrix in="SourceAlpha" type="matrix" values="0 0 0 0 0 0 0 0 0 0 0 0 0 0 0 0 0 0 127 0" result="hardAlpha"/>
<feMorphology radius="1" operator="dilate" in="SourceAlpha" result="effect1_dropShadow_1168_88"/>
<feOffset/>
<feComposite in2="hardAlpha" operator="out"/>
<feColorMatrix type="matrix" values="0 0 0 0 0 0 0 0 0 0 0 0 0 0 0 0 0 0 0.2 0"/>
<feBlend mode="normal" in2="BackgroundImageFix" result="effect1_dropShadow_1168_88"/>
<feColorMatrix in="SourceAlpha" type="matrix" values="0 0 0 0 0 0 0 0 0 0 0 0 0 0 0 0 0 0 127 0" result="hardAlpha"/>
<feOffset dy="4"/>
<feGaussianBlur stdDeviation="2"/>
<feComposite in2="hardAlpha" operator="out"/>
<feColorMatrix type="matrix" values="0 0 0 0 0 0 0 0 0 0 0 0 0 0 0 0 0 0 0.25 0"/>
<feBlend mode="normal" in2="effect1_dropShadow_1168_88" result="effect2_dropShadow_1168_88"/>
<feBlend mode="normal" in="SourceGraphic" in2="effect2_dropShadow_1168_88" result="shape"/>
</filter>
</defs>
</svg>
